<svg width="1363" height="163" viewBox="0 0 1363 163" fill="none" xmlns="http://www.w3.org/2000/svg">
<path d="M0 15C0 6.71573 6.71573 0 15 0H37V163H15C6.71573 163 0 156.284 0 148V15Z" fill="#424242"/>
<rect width="1097" height="163" transform="translate(37)" fill="#F0F0F0"/>
<path d="M101.906 53.9219L94.3945 51.2383V48.0859L104.602 52.375V54.6367L101.906 53.9219ZM94.3945 56.1719L101.918 53.4297L104.602 52.7852V55.0352L94.3945 59.3242V56.1719ZM113.859 46.8555L109.219 61H105.48L111.82 43.9375H114.199L113.859 46.8555ZM117.715 61L113.062 46.8555L112.688 43.9375H115.09L121.465 61H117.715ZM117.504 54.6484V57.4023H108.492V54.6484H117.504ZM126.785 43.9375V61H123.281V43.9375H126.785ZM136.723 54.918H132.375V52.1758H136.723C137.395 52.1758 137.941 52.0664 138.363 51.8477C138.785 51.6211 139.094 51.3086 139.289 50.9102C139.484 50.5117 139.582 50.0625 139.582 49.5625C139.582 49.0547 139.484 48.582 139.289 48.1445C139.094 47.707 138.785 47.3555 138.363 47.0898C137.941 46.8242 137.395 46.6914 136.723 46.6914H133.594V61H130.078V43.9375H136.723C138.059 43.9375 139.203 44.1797 140.156 44.6641C141.117 45.1406 141.852 45.8008 142.359 46.6445C142.867 47.4883 143.121 48.4531 143.121 49.5391C143.121 50.6406 142.867 51.5938 142.359 52.3984C141.852 53.2031 141.117 53.8242 140.156 54.2617C139.203 54.6992 138.059 54.918 136.723 54.918ZM145.547 43.9375H151.91C153.215 43.9375 154.336 44.1328 155.273 44.5234C156.219 44.9141 156.945 45.4922 157.453 46.2578C157.961 47.0234 158.215 47.9648 158.215 49.082C158.215 49.9961 158.059 50.7812 157.746 51.4375C157.441 52.0859 157.008 52.6289 156.445 53.0664C155.891 53.4961 155.238 53.8398 154.488 54.0977L153.375 54.6836H147.844L147.82 51.9414H151.934C152.551 51.9414 153.062 51.832 153.469 51.6133C153.875 51.3945 154.18 51.0898 154.383 50.6992C154.594 50.3086 154.699 49.8555 154.699 49.3398C154.699 48.793 154.598 48.3203 154.395 47.9219C154.191 47.5234 153.883 47.2188 153.469 47.0078C153.055 46.7969 152.535 46.6914 151.91 46.6914H149.062V61H145.547V43.9375ZM155.086 61L151.195 53.3945L154.91 53.3711L158.848 60.8359V61H155.086ZM174.938 52.0703V52.8789C174.938 54.1758 174.762 55.3398 174.41 56.3711C174.059 57.4023 173.562 58.2812 172.922 59.0078C172.281 59.7266 171.516 60.2773 170.625 60.6602C169.742 61.043 168.762 61.2344 167.684 61.2344C166.613 61.2344 165.633 61.043 164.742 60.6602C163.859 60.2773 163.094 59.7266 162.445 59.0078C161.797 58.2812 161.293 57.4023 160.934 56.3711C160.582 55.3398 160.406 54.1758 160.406 52.8789V52.0703C160.406 50.7656 160.582 49.6016 160.934 48.5781C161.285 47.5469 161.781 46.668 162.422 45.9414C163.07 45.2148 163.836 44.6602 164.719 44.2773C165.609 43.8945 166.59 43.7031 167.66 43.7031C168.738 43.7031 169.719 43.8945 170.602 44.2773C171.492 44.6602 172.258 45.2148 172.898 45.9414C173.547 46.668 174.047 47.5469 174.398 48.5781C174.758 49.6016 174.938 50.7656 174.938 52.0703ZM171.387 52.8789V52.0469C171.387 51.1406 171.305 50.3438 171.141 49.6562C170.977 48.9688 170.734 48.3906 170.414 47.9219C170.094 47.4531 169.703 47.1016 169.242 46.8672C168.781 46.625 168.254 46.5039 167.66 46.5039C167.066 46.5039 166.539 46.625 166.078 46.8672C165.625 47.1016 165.238 47.4531 164.918 47.9219C164.605 48.3906 164.367 48.9688 164.203 49.6562C164.039 50.3438 163.957 51.1406 163.957 52.0469V52.8789C163.957 53.7773 164.039 54.5742 164.203 55.2695C164.367 55.957 164.609 56.5391 164.93 57.0156C165.25 57.4844 165.641 57.8398 166.102 58.082C166.562 58.3242 167.09 58.4453 167.684 58.4453C168.277 58.4453 168.805 58.3242 169.266 58.082C169.727 57.8398 170.113 57.4844 170.426 57.0156C170.738 56.5391 170.977 55.957 171.141 55.2695C171.305 54.5742 171.387 53.7773 171.387 52.8789Z" fill="#888888"/>
<path d="M114.117 84.875H122.344V107.164C122.344 109.82 121.789 112.07 120.68 113.914C119.57 115.742 118.016 117.125 116.016 118.062C114.016 119 111.664 119.469 108.961 119.469C106.289 119.469 103.938 119 101.906 118.062C99.8906 117.125 98.3125 115.742 97.1719 113.914C96.0469 112.07 95.4844 109.82 95.4844 107.164V84.875H103.734V107.164C103.734 108.57 103.938 109.719 104.344 110.609C104.75 111.484 105.344 112.125 106.125 112.531C106.906 112.938 107.852 113.141 108.961 113.141C110.086 113.141 111.031 112.938 111.797 112.531C112.562 112.125 113.141 111.484 113.531 110.609C113.922 109.719 114.117 108.57 114.117 107.164V84.875ZM136.266 84.875V119H128.062V84.875H136.266ZM172.523 84.875H180.75V107.164C180.75 109.82 180.195 112.07 179.086 113.914C177.977 115.742 176.422 117.125 174.422 118.062C172.422 119 170.07 119.469 167.367 119.469C164.695 119.469 162.344 119 160.312 118.062C158.297 117.125 156.719 115.742 155.578 113.914C154.453 112.07 153.891 109.82 153.891 107.164V84.875H162.141V107.164C162.141 108.57 162.344 109.719 162.75 110.609C163.156 111.484 163.75 112.125 164.531 112.531C165.312 112.938 166.258 113.141 167.367 113.141C168.492 113.141 169.438 112.938 170.203 112.531C170.969 112.125 171.547 111.484 171.938 110.609C172.328 109.719 172.523 108.57 172.523 107.164V84.875ZM193.078 84.875L198.656 96.2188L204.234 84.875H213.609L204.094 101.797L213.867 119H204.398L198.656 107.445L192.914 119H183.422L193.219 101.797L183.68 84.875H193.078Z" fill="black"/>
<path d="M1134 0H1348C1356.28 0 1363 6.71573 1363 15V148C1363 156.284 1356.28 163 1348 163H1134V0Z" fill="#0000FF"/>
<path d="M1248.5 111.917C1244.51 111.917 1240.55 111.13 1236.86 109.601C1233.17 108.073 1229.82 105.832 1226.99 103.008C1221.29 97.3036 1218.08 89.567 1218.08 81.5C1218.08 73.433 1221.29 65.6964 1226.99 59.9922C1232.7 54.2879 1240.43 51.0833 1248.5 51.0833C1265.23 51.0833 1278.92 63.25 1278.92 78.4583C1278.92 83.2985 1276.99 87.9405 1273.57 91.363C1270.15 94.7856 1265.51 96.7083 1260.67 96.7083H1255.19C1254.28 96.7083 1253.67 97.3167 1253.67 98.2292C1253.67 98.5333 1253.97 98.8375 1253.97 99.1417C1255.19 100.662 1255.8 102.487 1255.8 104.312C1256.1 108.571 1252.76 111.917 1248.5 111.917ZM1248.5 57.1667C1242.05 57.1667 1235.86 59.7303 1231.29 64.2937C1226.73 68.8571 1224.17 75.0464 1224.17 81.5C1224.17 87.9536 1226.73 94.1429 1231.29 98.7063C1235.86 103.27 1242.05 105.833 1248.5 105.833C1249.41 105.833 1250.02 105.225 1250.02 104.312C1250.02 103.704 1249.72 103.4 1249.72 103.096C1248.5 101.575 1247.89 100.054 1247.89 98.2292C1247.89 93.9708 1251.24 90.625 1255.5 90.625H1260.67C1263.89 90.625 1266.99 89.3432 1269.27 87.0615C1271.55 84.7798 1272.83 81.6851 1272.83 78.4583C1272.83 66.5958 1261.88 57.1667 1248.5 57.1667ZM1231.77 75.4167C1234.2 75.4167 1236.33 77.5458 1236.33 79.9792C1236.33 82.4125 1234.2 84.5417 1231.77 84.5417C1229.34 84.5417 1227.21 82.4125 1227.21 79.9792C1227.21 77.5458 1229.34 75.4167 1231.77 75.4167ZM1240.9 63.25C1243.33 63.25 1245.46 65.3792 1245.46 67.8125C1245.46 70.2458 1243.33 72.375 1240.9 72.375C1238.46 72.375 1236.33 70.2458 1236.33 67.8125C1236.33 65.3792 1238.46 63.25 1240.9 63.25ZM1256.1 63.25C1258.54 63.25 1260.67 65.3792 1260.67 67.8125C1260.67 70.2458 1258.54 72.375 1256.1 72.375C1253.67 72.375 1251.54 70.2458 1251.54 67.8125C1251.54 65.3792 1253.67 63.25 1256.1 63.25ZM1265.23 75.4167C1267.66 75.4167 1269.79 77.5458 1269.79 79.9792C1269.79 82.4125 1267.66 84.5417 1265.23 84.5417C1262.8 84.5417 1260.67 82.4125 1260.67 79.9792C1260.67 77.5458 1262.8 75.4167 1265.23 75.4167Z" fill="white"/>
</svg>
