<svg width="1363" height="163" viewBox="0 0 1363 163" fill="none" xmlns="http://www.w3.org/2000/svg">
<path d="M0 15C0 6.71573 6.71573 0 15 0H37V163H15C6.71573 163 0 156.284 0 148V15Z" fill="#424242"/>
<rect width="1097" height="163" transform="translate(37)" fill="#F0F0F0"/>
<path d="M101.906 53.9219L94.3945 51.2383V48.0859L104.602 52.375V54.6367L101.906 53.9219ZM94.3945 56.1719L101.918 53.4297L104.602 52.7852V55.0352L94.3945 59.3242V56.1719ZM119.836 46.8555L115.195 61H111.457L117.797 43.9375H120.176L119.836 46.8555ZM123.691 61L119.039 46.8555L118.664 43.9375H121.066L127.441 61H123.691ZM123.48 54.6484V57.4023H114.469V54.6484H123.48ZM132.762 43.9375V61H129.258V43.9375H132.762ZM142.699 54.918H138.352V52.1758H142.699C143.371 52.1758 143.918 52.0664 144.34 51.8477C144.762 51.6211 145.07 51.3086 145.266 50.9102C145.461 50.5117 145.559 50.0625 145.559 49.5625C145.559 49.0547 145.461 48.582 145.266 48.1445C145.07 47.707 144.762 47.3555 144.34 47.0898C143.918 46.8242 143.371 46.6914 142.699 46.6914H139.57V61H136.055V43.9375H142.699C144.035 43.9375 145.18 44.1797 146.133 44.6641C147.094 45.1406 147.828 45.8008 148.336 46.6445C148.844 47.4883 149.098 48.4531 149.098 49.5391C149.098 50.6406 148.844 51.5938 148.336 52.3984C147.828 53.2031 147.094 53.8242 146.133 54.2617C145.18 54.6992 144.035 54.918 142.699 54.918ZM151.523 43.9375H157.887C159.191 43.9375 160.312 44.1328 161.25 44.5234C162.195 44.9141 162.922 45.4922 163.43 46.2578C163.938 47.0234 164.191 47.9648 164.191 49.082C164.191 49.9961 164.035 50.7812 163.723 51.4375C163.418 52.0859 162.984 52.6289 162.422 53.0664C161.867 53.4961 161.215 53.8398 160.465 54.0977L159.352 54.6836H153.82L153.797 51.9414H157.91C158.527 51.9414 159.039 51.832 159.445 51.6133C159.852 51.3945 160.156 51.0898 160.359 50.6992C160.57 50.3086 160.676 49.8555 160.676 49.3398C160.676 48.793 160.574 48.3203 160.371 47.9219C160.168 47.5234 159.859 47.2188 159.445 47.0078C159.031 46.7969 158.512 46.6914 157.887 46.6914H155.039V61H151.523V43.9375ZM161.062 61L157.172 53.3945L160.887 53.3711L164.824 60.8359V61H161.062ZM180.914 52.0703V52.8789C180.914 54.1758 180.738 55.3398 180.387 56.3711C180.035 57.4023 179.539 58.2812 178.898 59.0078C178.258 59.7266 177.492 60.2773 176.602 60.6602C175.719 61.043 174.738 61.2344 173.66 61.2344C172.59 61.2344 171.609 61.043 170.719 60.6602C169.836 60.2773 169.07 59.7266 168.422 59.0078C167.773 58.2812 167.27 57.4023 166.91 56.3711C166.559 55.3398 166.383 54.1758 166.383 52.8789V52.0703C166.383 50.7656 166.559 49.6016 166.91 48.5781C167.262 47.5469 167.758 46.668 168.398 45.9414C169.047 45.2148 169.812 44.6602 170.695 44.2773C171.586 43.8945 172.566 43.7031 173.637 43.7031C174.715 43.7031 175.695 43.8945 176.578 44.2773C177.469 44.6602 178.234 45.2148 178.875 45.9414C179.523 46.668 180.023 47.5469 180.375 48.5781C180.734 49.6016 180.914 50.7656 180.914 52.0703ZM177.363 52.8789V52.0469C177.363 51.1406 177.281 50.3438 177.117 49.6562C176.953 48.9688 176.711 48.3906 176.391 47.9219C176.07 47.4531 175.68 47.1016 175.219 46.8672C174.758 46.625 174.23 46.5039 173.637 46.5039C173.043 46.5039 172.516 46.625 172.055 46.8672C171.602 47.1016 171.215 47.4531 170.895 47.9219C170.582 48.3906 170.344 48.9688 170.18 49.6562C170.016 50.3438 169.934 51.1406 169.934 52.0469V52.8789C169.934 53.7773 170.016 54.5742 170.18 55.2695C170.344 55.957 170.586 56.5391 170.906 57.0156C171.227 57.4844 171.617 57.8398 172.078 58.082C172.539 58.3242 173.066 58.4453 173.66 58.4453C174.254 58.4453 174.781 58.3242 175.242 58.082C175.703 57.8398 176.09 57.4844 176.402 57.0156C176.715 56.5391 176.953 55.957 177.117 55.2695C177.281 54.5742 177.363 53.7773 177.363 52.8789Z" fill="#888888"/>
<path d="M114.117 84.875H122.344V107.164C122.344 109.82 121.789 112.07 120.68 113.914C119.57 115.742 118.016 117.125 116.016 118.062C114.016 119 111.664 119.469 108.961 119.469C106.289 119.469 103.938 119 101.906 118.062C99.8906 117.125 98.3125 115.742 97.1719 113.914C96.0469 112.07 95.4844 109.82 95.4844 107.164V84.875H103.734V107.164C103.734 108.57 103.938 109.719 104.344 110.609C104.75 111.484 105.344 112.125 106.125 112.531C106.906 112.938 107.852 113.141 108.961 113.141C110.086 113.141 111.031 112.938 111.797 112.531C112.562 112.125 113.141 111.484 113.531 110.609C113.922 109.719 114.117 108.57 114.117 107.164V84.875ZM136.266 84.875V119H128.062V84.875H136.266ZM172.523 84.875H180.75V107.164C180.75 109.82 180.195 112.07 179.086 113.914C177.977 115.742 176.422 117.125 174.422 118.062C172.422 119 170.07 119.469 167.367 119.469C164.695 119.469 162.344 119 160.312 118.062C158.297 117.125 156.719 115.742 155.578 113.914C154.453 112.07 153.891 109.82 153.891 107.164V84.875H162.141V107.164C162.141 108.57 162.344 109.719 162.75 110.609C163.156 111.484 163.75 112.125 164.531 112.531C165.312 112.938 166.258 113.141 167.367 113.141C168.492 113.141 169.438 112.938 170.203 112.531C170.969 112.125 171.547 111.484 171.938 110.609C172.328 109.719 172.523 108.57 172.523 107.164V84.875ZM193.078 84.875L198.656 96.2188L204.234 84.875H213.609L204.094 101.797L213.867 119H204.398L198.656 107.445L192.914 119H183.422L193.219 101.797L183.68 84.875H193.078Z" fill="black"/>
<path d="M1134 0H1348C1356.28 0 1363 6.71573 1363 15V148C1363 156.284 1356.28 163 1348 163H1134V0Z" fill="#0000FF"/>
<path d="M1248.5 111.917C1244.51 111.917 1240.55 111.13 1236.86 109.601C1233.17 108.073 1229.82 105.832 1226.99 103.008C1221.29 97.3036 1218.08 89.567 1218.08 81.5C1218.08 73.433 1221.29 65.6964 1226.99 59.9922C1232.7 54.2879 1240.43 51.0833 1248.5 51.0833C1265.23 51.0833 1278.92 63.25 1278.92 78.4583C1278.92 83.2985 1276.99 87.9405 1273.57 91.363C1270.15 94.7856 1265.51 96.7083 1260.67 96.7083H1255.19C1254.28 96.7083 1253.67 97.3167 1253.67 98.2292C1253.67 98.5333 1253.97 98.8375 1253.97 99.1417C1255.19 100.662 1255.8 102.487 1255.8 104.312C1256.1 108.571 1252.76 111.917 1248.5 111.917ZM1248.5 57.1667C1242.05 57.1667 1235.86 59.7303 1231.29 64.2937C1226.73 68.8571 1224.17 75.0464 1224.17 81.5C1224.17 87.9536 1226.73 94.1429 1231.29 98.7063C1235.86 103.27 1242.05 105.833 1248.5 105.833C1249.41 105.833 1250.02 105.225 1250.02 104.312C1250.02 103.704 1249.72 103.4 1249.72 103.096C1248.5 101.575 1247.89 100.054 1247.89 98.2292C1247.89 93.9708 1251.24 90.625 1255.5 90.625H1260.67C1263.89 90.625 1266.99 89.3432 1269.27 87.0615C1271.55 84.7798 1272.83 81.6851 1272.83 78.4583C1272.83 66.5958 1261.88 57.1667 1248.5 57.1667ZM1231.77 75.4167C1234.2 75.4167 1236.33 77.5458 1236.33 79.9792C1236.33 82.4125 1234.2 84.5417 1231.77 84.5417C1229.34 84.5417 1227.21 82.4125 1227.21 79.9792C1227.21 77.5458 1229.34 75.4167 1231.77 75.4167ZM1240.9 63.25C1243.33 63.25 1245.46 65.3792 1245.46 67.8125C1245.46 70.2458 1243.33 72.375 1240.9 72.375C1238.46 72.375 1236.33 70.2458 1236.33 67.8125C1236.33 65.3792 1238.46 63.25 1240.9 63.25ZM1256.1 63.25C1258.54 63.25 1260.67 65.3792 1260.67 67.8125C1260.67 70.2458 1258.54 72.375 1256.1 72.375C1253.67 72.375 1251.54 70.2458 1251.54 67.8125C1251.54 65.3792 1253.67 63.25 1256.1 63.25ZM1265.23 75.4167C1267.66 75.4167 1269.79 77.5458 1269.79 79.9792C1269.79 82.4125 1267.66 84.5417 1265.23 84.5417C1262.8 84.5417 1260.67 82.4125 1260.67 79.9792C1260.67 77.5458 1262.8 75.4167 1265.23 75.4167Z" fill="white"/>
</svg>
