<svg width="1363" height="163" viewBox="0 0 1363 163" fill="none" xmlns="http://www.w3.org/2000/svg">
<path d="M0 15C0 6.71573 6.71573 0 15 0H37V163H15C6.71573 163 0 156.284 0 148V15Z" fill="#424242"/>
<rect width="1097" height="163" transform="translate(37)" fill="#F0F0F0"/>
<path d="M101.461 46.8555L96.8203 61H93.082L99.4219 43.9375H101.801L101.461 46.8555ZM105.316 61L100.664 46.8555L100.289 43.9375H102.691L109.066 61H105.316ZM105.105 54.6484V57.4023H96.0938V54.6484H105.105ZM114.387 43.9375V61H110.883V43.9375H114.387ZM124.324 54.918H119.977V52.1758H124.324C124.996 52.1758 125.543 52.0664 125.965 51.8477C126.387 51.6211 126.695 51.3086 126.891 50.9102C127.086 50.5117 127.184 50.0625 127.184 49.5625C127.184 49.0547 127.086 48.582 126.891 48.1445C126.695 47.707 126.387 47.3555 125.965 47.0898C125.543 46.8242 124.996 46.6914 124.324 46.6914H121.195V61H117.68V43.9375H124.324C125.66 43.9375 126.805 44.1797 127.758 44.6641C128.719 45.1406 129.453 45.8008 129.961 46.6445C130.469 47.4883 130.723 48.4531 130.723 49.5391C130.723 50.6406 130.469 51.5938 129.961 52.3984C129.453 53.2031 128.719 53.8242 127.758 54.2617C126.805 54.6992 125.66 54.918 124.324 54.918ZM133.148 43.9375H139.512C140.816 43.9375 141.938 44.1328 142.875 44.5234C143.82 44.9141 144.547 45.4922 145.055 46.2578C145.562 47.0234 145.816 47.9648 145.816 49.082C145.816 49.9961 145.66 50.7812 145.348 51.4375C145.043 52.0859 144.609 52.6289 144.047 53.0664C143.492 53.4961 142.84 53.8398 142.09 54.0977L140.977 54.6836H135.445L135.422 51.9414H139.535C140.152 51.9414 140.664 51.832 141.07 51.6133C141.477 51.3945 141.781 51.0898 141.984 50.6992C142.195 50.3086 142.301 49.8555 142.301 49.3398C142.301 48.793 142.199 48.3203 141.996 47.9219C141.793 47.5234 141.484 47.2188 141.07 47.0078C140.656 46.7969 140.137 46.6914 139.512 46.6914H136.664V61H133.148V43.9375ZM142.688 61L138.797 53.3945L142.512 53.3711L146.449 60.8359V61H142.688ZM162.539 52.0703V52.8789C162.539 54.1758 162.363 55.3398 162.012 56.3711C161.66 57.4023 161.164 58.2812 160.523 59.0078C159.883 59.7266 159.117 60.2773 158.227 60.6602C157.344 61.043 156.363 61.2344 155.285 61.2344C154.215 61.2344 153.234 61.043 152.344 60.6602C151.461 60.2773 150.695 59.7266 150.047 59.0078C149.398 58.2812 148.895 57.4023 148.535 56.3711C148.184 55.3398 148.008 54.1758 148.008 52.8789V52.0703C148.008 50.7656 148.184 49.6016 148.535 48.5781C148.887 47.5469 149.383 46.668 150.023 45.9414C150.672 45.2148 151.438 44.6602 152.32 44.2773C153.211 43.8945 154.191 43.7031 155.262 43.7031C156.34 43.7031 157.32 43.8945 158.203 44.2773C159.094 44.6602 159.859 45.2148 160.5 45.9414C161.148 46.668 161.648 47.5469 162 48.5781C162.359 49.6016 162.539 50.7656 162.539 52.0703ZM158.988 52.8789V52.0469C158.988 51.1406 158.906 50.3438 158.742 49.6562C158.578 48.9688 158.336 48.3906 158.016 47.9219C157.695 47.4531 157.305 47.1016 156.844 46.8672C156.383 46.625 155.855 46.5039 155.262 46.5039C154.668 46.5039 154.141 46.625 153.68 46.8672C153.227 47.1016 152.84 47.4531 152.52 47.9219C152.207 48.3906 151.969 48.9688 151.805 49.6562C151.641 50.3438 151.559 51.1406 151.559 52.0469V52.8789C151.559 53.7773 151.641 54.5742 151.805 55.2695C151.969 55.957 152.211 56.5391 152.531 57.0156C152.852 57.4844 153.242 57.8398 153.703 58.082C154.164 58.3242 154.691 58.4453 155.285 58.4453C155.879 58.4453 156.406 58.3242 156.867 58.082C157.328 57.8398 157.715 57.4844 158.027 57.0156C158.34 56.5391 158.578 55.957 158.742 55.2695C158.906 54.5742 158.988 53.7773 158.988 52.8789Z" fill="#888888"/>
<path d="M114.117 84.875H122.344V107.164C122.344 109.82 121.789 112.07 120.68 113.914C119.57 115.742 118.016 117.125 116.016 118.062C114.016 119 111.664 119.469 108.961 119.469C106.289 119.469 103.938 119 101.906 118.062C99.8906 117.125 98.3125 115.742 97.1719 113.914C96.0469 112.07 95.4844 109.82 95.4844 107.164V84.875H103.734V107.164C103.734 108.57 103.938 109.719 104.344 110.609C104.75 111.484 105.344 112.125 106.125 112.531C106.906 112.938 107.852 113.141 108.961 113.141C110.086 113.141 111.031 112.938 111.797 112.531C112.562 112.125 113.141 111.484 113.531 110.609C113.922 109.719 114.117 108.57 114.117 107.164V84.875ZM136.266 84.875V119H128.062V84.875H136.266ZM172.523 84.875H180.75V107.164C180.75 109.82 180.195 112.07 179.086 113.914C177.977 115.742 176.422 117.125 174.422 118.062C172.422 119 170.07 119.469 167.367 119.469C164.695 119.469 162.344 119 160.312 118.062C158.297 117.125 156.719 115.742 155.578 113.914C154.453 112.07 153.891 109.82 153.891 107.164V84.875H162.141V107.164C162.141 108.57 162.344 109.719 162.75 110.609C163.156 111.484 163.75 112.125 164.531 112.531C165.312 112.938 166.258 113.141 167.367 113.141C168.492 113.141 169.438 112.938 170.203 112.531C170.969 112.125 171.547 111.484 171.938 110.609C172.328 109.719 172.523 108.57 172.523 107.164V84.875ZM193.078 84.875L198.656 96.2188L204.234 84.875H213.609L204.094 101.797L213.867 119H204.398L198.656 107.445L192.914 119H183.422L193.219 101.797L183.68 84.875H193.078Z" fill="black"/>
<path d="M1134 0H1348C1356.28 0 1363 6.71573 1363 15V148C1363 156.284 1356.28 163 1348 163H1134V0Z" fill="#0000FF"/>
<path d="M1248.5 111.917C1244.51 111.917 1240.55 111.13 1236.86 109.601C1233.17 108.073 1229.82 105.832 1226.99 103.008C1221.29 97.3036 1218.08 89.567 1218.08 81.5C1218.08 73.433 1221.29 65.6964 1226.99 59.9922C1232.7 54.2879 1240.43 51.0833 1248.5 51.0833C1265.23 51.0833 1278.92 63.25 1278.92 78.4583C1278.92 83.2985 1276.99 87.9405 1273.57 91.363C1270.15 94.7856 1265.51 96.7083 1260.67 96.7083H1255.19C1254.28 96.7083 1253.67 97.3167 1253.67 98.2292C1253.67 98.5333 1253.97 98.8375 1253.97 99.1417C1255.19 100.662 1255.8 102.487 1255.8 104.312C1256.1 108.571 1252.76 111.917 1248.5 111.917ZM1248.5 57.1667C1242.05 57.1667 1235.86 59.7303 1231.29 64.2937C1226.73 68.8571 1224.17 75.0464 1224.17 81.5C1224.17 87.9536 1226.73 94.1429 1231.29 98.7063C1235.86 103.27 1242.05 105.833 1248.5 105.833C1249.41 105.833 1250.02 105.225 1250.02 104.312C1250.02 103.704 1249.72 103.4 1249.72 103.096C1248.5 101.575 1247.89 100.054 1247.89 98.2292C1247.89 93.9708 1251.24 90.625 1255.5 90.625H1260.67C1263.89 90.625 1266.99 89.3432 1269.27 87.0615C1271.55 84.7798 1272.83 81.6851 1272.83 78.4583C1272.83 66.5958 1261.88 57.1667 1248.5 57.1667ZM1231.77 75.4167C1234.2 75.4167 1236.33 77.5458 1236.33 79.9792C1236.33 82.4125 1234.2 84.5417 1231.77 84.5417C1229.34 84.5417 1227.21 82.4125 1227.21 79.9792C1227.21 77.5458 1229.34 75.4167 1231.77 75.4167ZM1240.9 63.25C1243.33 63.25 1245.46 65.3792 1245.46 67.8125C1245.46 70.2458 1243.33 72.375 1240.9 72.375C1238.46 72.375 1236.33 70.2458 1236.33 67.8125C1236.33 65.3792 1238.46 63.25 1240.9 63.25ZM1256.1 63.25C1258.54 63.25 1260.67 65.3792 1260.67 67.8125C1260.67 70.2458 1258.54 72.375 1256.1 72.375C1253.67 72.375 1251.54 70.2458 1251.54 67.8125C1251.54 65.3792 1253.67 63.25 1256.1 63.25ZM1265.23 75.4167C1267.66 75.4167 1269.79 77.5458 1269.79 79.9792C1269.79 82.4125 1267.66 84.5417 1265.23 84.5417C1262.8 84.5417 1260.67 82.4125 1260.67 79.9792C1260.67 77.5458 1262.8 75.4167 1265.23 75.4167Z" fill="white"/>
</svg>
